<svg xmlns="http://www.w3.org/2000/svg" viewBox="0 0 512 512">
  <defs>
    <linearGradient id="bg" x1="0" y1="0" x2="1" y2="1">
      <stop offset="0" stop-color="#1d1205" />
      <stop offset="1" stop-color="#080402" />
    </linearGradient>
    <linearGradient id="ring" x1="0" y1="1" x2="1" y2="0">
      <stop offset="0" stop-color="#b45309" />
      <stop offset="1" stop-color="#d97706" />
    </linearGradient>
  </defs>
  <rect x="24" y="24" width="464" height="464" rx="96" fill="url(#bg)" />
  <rect x="36" y="36" width="440" height="440" rx="86" fill="none" stroke="url(#ring)" stroke-width="12" />
  <path d="M88 356c48-80 112-140 200-148s144 60 136 148H88z" fill="#f97316" opacity="0.32" />
  <g fill="none" stroke-linecap="round" stroke-width="18">
    <path d="M166 324c34 28 60 42 90 42 60 0 108-48 108-108s-48-108-108-108c-34 0-63 14-86 40" stroke="url(#ring)" />
    <path d="M204 258h58l-22-54" stroke="#fff7ed" />
  </g>
  <circle cx="256" cy="256" r="58" fill="#1c1006" opacity="0.92" />
  <circle cx="256" cy="256" r="38" fill="#3a1d0c" />
  <path d="M228 246c14-18 30-16 44-2" stroke="#fcd34d" stroke-width="9" stroke-linecap="round" fill="none" />
</svg>
