<svg xmlns="http://www.w3.org/2000/svg" viewBox="0 0 512 512">
  <defs>
    <linearGradient id="bg" x1="0" y1="0" x2="1" y2="1">
      <stop offset="0" stop-color="#07140c" />
      <stop offset="1" stop-color="#020805" />
    </linearGradient>
    <linearGradient id="ring" x1="0" y1="1" x2="1" y2="0">
      <stop offset="0" stop-color="#22c55e" />
      <stop offset="1" stop-color="#f43f5e" />
    </linearGradient>
  </defs>
  <rect x="24" y="24" width="464" height="464" rx="96" fill="url(#bg)" />
  <rect x="36" y="36" width="440" height="440" rx="86" fill="none" stroke="url(#ring)" stroke-width="12" />
  <path d="M96 368c52-88 116-160 160-152s116 80 160 152H96z" fill="#22c55e" opacity="0.32" />
  <g fill="none" stroke-linecap="round" stroke-width="18">
    <path d="M170 324c34 28 60 42 90 42 60 0 108-48 108-108s-48-108-108-108c-34 0-63 14-86 40" stroke="url(#ring)" />
    <path d="M206 258h60l-22-54" stroke="#fef2f2" />
  </g>
  <circle cx="256" cy="256" r="58" fill="#06140d" opacity="0.92" />
  <circle cx="256" cy="256" r="38" fill="#103322" />
  <path d="M228 246c14-18 30-16 44-2" stroke="#fcd34d" stroke-width="9" stroke-linecap="round" fill="none" />
  <path d="M256 200 276 240h-40z" fill="#f43f5e" />
</svg>
