<svg xmlns="http://www.w3.org/2000/svg" viewBox="0 0 512 512">
  <defs>
    <linearGradient id="bg" x1="0" y1="0" x2="1" y2="1">
      <stop offset="0" stop-color="#1a0b06" />
      <stop offset="1" stop-color="#060201" />
    </linearGradient>
    <linearGradient id="ring" x1="0" y1="1" x2="1" y2="0">
      <stop offset="0" stop-color="#f97316" />
      <stop offset="1" stop-color="#d946ef" />
    </linearGradient>
  </defs>
  <rect x="24" y="24" width="464" height="464" rx="96" fill="url(#bg)" />
  <rect x="36" y="36" width="440" height="440" rx="86" fill="none" stroke="url(#ring)" stroke-width="12" />
  <path d="M72 344c56-96 136-168 216-160s152 112 144 208H72Z" fill="#f97316" opacity="0.32" />
  <g fill="none" stroke-linecap="round" stroke-width="18">
    <path d="M170 324c34 28 60 42 90 42 60 0 108-48 108-108s-48-108-108-108c-34 0-63 14-86 40" stroke="url(#ring)" />
    <path d="M206 258h60l-22-54" stroke="#ffe4e6" />
  </g>
  <circle cx="256" cy="256" r="58" fill="#1a0c06" opacity="0.92" />
  <circle cx="256" cy="256" r="38" fill="#360f0d" />
  <path d="M228 246c14-18 30-16 44-2" stroke="#fb923c" stroke-width="9" stroke-linecap="round" fill="none" />
  <circle cx="196" cy="216" r="16" fill="#f97316" />
  <circle cx="316" cy="216" r="16" fill="#f97316" />
</svg>
