<svg xmlns="http://www.w3.org/2000/svg" viewBox="0 0 512 512">
  <defs>
    <linearGradient id="bg" x1="0" y1="0" x2="1" y2="1">
      <stop offset="0" stop-color="#07101c" />
      <stop offset="1" stop-color="#02060b" />
    </linearGradient>
    <linearGradient id="ring" x1="0" y1="1" x2="1" y2="0">
      <stop offset="0" stop-color="#38bdf8" />
      <stop offset="1" stop-color="#a78bfa" />
    </linearGradient>
  </defs>
  <rect x="24" y="24" width="464" height="464" rx="96" fill="url(#bg)" />
  <rect x="36" y="36" width="440" height="440" rx="86" fill="none" stroke="url(#ring)" stroke-width="12" />
  <path d="M80 312c48-56 128-96 176-88s152 56 176 120v72H80Z" fill="#38bdf8" opacity="0.28" />
  <g fill="none" stroke-linecap="round" stroke-width="18">
    <path d="M170 324c34 28 60 42 90 42 60 0 108-48 108-108s-48-108-108-108c-34 0-63 14-86 40" stroke="url(#ring)" />
    <path d="M206 258h60l-22-54" stroke="#e0f2fe" />
  </g>
  <circle cx="256" cy="256" r="58" fill="#08111f" opacity="0.92" />
  <circle cx="256" cy="256" r="38" fill="#10243a" />
  <path d="M228 246c14-18 30-16 44-2" stroke="#bae6fd" stroke-width="9" stroke-linecap="round" fill="none" />
</svg>
