
  <svg xmlns="http://www.w3.org/2000/svg" width="1024" height="1024" viewBox="0 0 1024 1024">
    <defs>
      <linearGradient id="g" x1="0" y1="0" x2="1" y2="1">
        <stop offset="0" stop-color="#7e0b22"/><stop offset=".5" stop-color="#d21e3c"/><stop offset="1" stop-color="#ff6b88"/>
      </linearGradient>
      <filter id="glow" x="-50%" y="-50%" width="200%" height="200%"><feGaussianBlur stdDeviation="18" result="b"/><feMerge><feMergeNode in="b"/><feMergeNode in="SourceGraphic"/></feMerge></filter>
    </defs>
    <rect x="64" y="64" width="896" height="896" rx="200" fill="#0c0f16"/>
    <rect x="64" y="64" width="896" height="896" rx="200" fill="none" stroke="url(#g)" stroke-width="8" opacity=".8"/>
    <path d="M64,260 Q150,330 240,260 T416,260 T592,260 T768,260 T960,260 L960,960 H64Z" fill="url(#g)" opacity=".25"/>
    <g filter="url(#glow)">
      <path d="M320 300h170c86 0 134 43 134 104 0 49-33 85-83 98 60 13 96 52 96 110 0 76-59 137-170 137H320V300zm86 76v92h69c42 0 66-19 66-46 0-28-24-46-66-46h-69zm0 160v110h84c53 0 83-21 83-55 0-32-30-55-83-55h-84z" fill="url(#g)"/>
      <path d="M610 380c52 0 96 9 146 34l-36 70c-40-18-72-28-110-28-44 0-74 15-74 40 0 66 230 25 230 174 0 84-76 132-184 132-65 0-125-15-176-44l38-68c40 22 89 36 140 36 58 0 94-17 94-46 0-69-230-28-230-174 0-80 74-126 162-126z" fill="url(#g)"/>
    </g>
  </svg>