<svg xmlns="http://www.w3.org/2000/svg" viewBox="0 0 512 512">
  <defs>
    <linearGradient id="bg" x1="0" y1="0" x2="1" y2="1">
      <stop offset="0" stop-color="#111321" />
      <stop offset="1" stop-color="#05070f" />
    </linearGradient>
    <linearGradient id="ring" x1="0" y1="1" x2="1" y2="0">
      <stop offset="0" stop-color="#4f46e5" />
      <stop offset="1" stop-color="#22c55e" />
    </linearGradient>
    <linearGradient id="flare" x1="0" y1="0" x2="1" y2="1">
      <stop offset="0" stop-color="#ff6b9d" stop-opacity="0.95" />
      <stop offset="1" stop-color="#7f1d1d" stop-opacity="0.65" />
    </linearGradient>
  </defs>
  <rect x="24" y="24" width="464" height="464" rx="96" fill="url(#bg)" />
  <rect x="36" y="36" width="440" height="440" rx="86" fill="none" stroke="url(#ring)" stroke-width="12" />
  <path d="M72 168c64 24 112 24 176-8s144-32 192-8v224H72Z" fill="url(#flare)" opacity="0.4" />
  <g fill="none" stroke-width="20" stroke-linecap="round">
    <path d="M154 340c40 30 70 42 102 42 60 0 108-48 108-108s-48-108-108-108c-38 0-71 17-95 47" stroke="url(#ring)" />
    <path d="M188 256h64l-24-56" stroke="#f4f4ff" />
  </g>
  <circle cx="256" cy="256" r="64" fill="#0b0d18" opacity="0.9" />
  <circle cx="256" cy="256" r="42" fill="#1f2438" />
  <path d="M224 248c12-20 32-24 48-10" stroke="#ff9eb3" stroke-width="10" stroke-linecap="round" fill="none" />
</svg>
