<svg xmlns="http://www.w3.org/2000/svg" viewBox="0 0 160 160">
  <defs>
    <linearGradient id="c-sky" x1="0" y1="0" x2="0" y2="1">
      <stop offset="0" stop-color="#021433" />
      <stop offset="1" stop-color="#000810" />
    </linearGradient>
  </defs>
  <rect width="160" height="160" rx="34" fill="url(#c-sky)" />
  <g fill="#ffffff" opacity="0.8">
    <circle cx="30" cy="26" r="2" /><circle cx="46" cy="18" r="1.6" /><circle cx="82" cy="24" r="1.8" /><circle cx="120" cy="20" r="2.2" />
    <circle cx="96" cy="38" r="1.4" /><circle cx="140" cy="42" r="1.6" /><circle cx="22" cy="52" r="1.2" /><circle cx="60" cy="50" r="1.3" />
  </g>
  <path d="M96 36q28 12 44 0" stroke="#fce96a" stroke-width="6" fill="none" stroke-linecap="round" />
  <circle cx="118" cy="24" r="10" fill="#fce96a" />
  <rect y="118" width="160" height="26" fill="#f4fbff" />
  <path d="M0 118q40-24 80 0t80 0v26H0z" fill="#dfefff" />
  <g fill="#1d6f42">
    <polygon points="32,110 14,150 50,150" />
    <polygon points="40,94 20,130 60,130" />
    <polygon points="80,110 62,150 98,150" />
    <polygon points="88,94 68,130 108,130" />
    <polygon points="128,110 110,150 146,150" />
    <polygon points="136,94 116,130 156,130" />
  </g>
  <path d="M44 102h8v8h-8zm48 0h8v8h-8zm48 0h8v8h-8z" fill="#fce96a" opacity="0.8" />
</svg>
